<!DOCTYPE svg PUBLIC "-//W3C//DTD SVG 1.1//EN" "http://www.w3.org/Graphics/SVG/1.1/DTD/svg11.dtd">
<!-- Uploaded to: SVG Repo, www.svgrepo.com, Transformed by: SVG Repo Mixer Tools -->
<svg width="800px" height="800px" viewBox="0 -1 20 20" version="1.1" xmlns="http://www.w3.org/2000/svg" xmlns:xlink="http://www.w3.org/1999/xlink" fill="#000000">
<g id="SVGRepo_bgCarrier" stroke-width="0"/>
<g id="SVGRepo_tracerCarrier" stroke-linecap="round" stroke-linejoin="round"/>
<g id="SVGRepo_iconCarrier"> <title>network_3 [#5252521116]</title> <desc>Created with Sketch.</desc> <defs> </defs> <g id="Page-1" stroke="none" stroke-width="1" fill="none" fill-rule="evenodd"> <g id="Dribbble-Light-Preview" transform="translate(-140.000000, -3280.000000)" fill="#525252"> <g id="icons" transform="translate(56.000000, 160.000000)"> <path d="M92,3124 L96,3124 L96,3120 L92,3120 L92,3124 Z M92,3138 L96,3138 L96,3134 L92,3134 L92,3138 Z M100,3138 L104,3138 L104,3134 L100,3134 L100,3138 Z M84,3138 L88,3138 L88,3134 L84,3134 L84,3138 Z M87,3132 L85,3132 L85,3128 L93,3128 L93,3126 L95,3126 L95,3128 L103,3128 L103,3132 L101,3132 L101,3130 L95,3130 L95,3132 L93,3132 L93,3130 L87,3130 L87,3132 Z" id="network_3-[#5252521116]"> </path> </g> </g> </g> </g>
</svg>