<!DOCTYPE svg PUBLIC "-//W3C//DTD SVG 1.1//EN" "http://www.w3.org/Graphics/SVG/1.1/DTD/svg11.dtd">
<!-- Uploaded to: SVG Repo, www.svgrepo.com, Transformed by: SVG Repo Mixer Tools -->
<svg fill="#77767b" version="1.1" id="Capa_1" xmlns="http://www.w3.org/2000/svg" xmlns:xlink="http://www.w3.org/1999/xlink" width="800px" height="800px" viewBox="0 0 585.918 585.918" xml:space="preserve" stroke="#77767b">
<g id="SVGRepo_bgCarrier" stroke-width="0"/>
<g id="SVGRepo_tracerCarrier" stroke-linecap="round" stroke-linejoin="round"/>
<g id="SVGRepo_iconCarrier"> <g> <path d="M537.115,48.974h-177.39c-0.781,0-1.553,0.076-2.329,0.123V0L11.176,46.206v492.311l346.22,47.402v-50.583 c0.776,0.052,1.542,0.114,2.329,0.114h177.39c20.75,0,37.627-16.888,37.627-37.627V86.602 C574.742,65.859,557.865,48.974,537.115,48.974z M357.396,303.332c3.453,5.218,7.133,10.483,11.307,15.8 c-3.506,3.828-7.339,7.612-11.307,11.393V303.332z M69.715,365.533c-11.121-0.573-21.887-4.311-27.221-7.901l4.339-19.82 c5.787,3.526,14.787,7.19,24.2,7.526c10.299,0.357,15.819-4.199,15.819-11.422c0-6.893-4.779-10.92-16.701-15.823 c-16.105-6.456-26.399-16.378-26.399-31.918c0-18.233,13.561-32.709,36.693-33.602c11.362-0.425,19.867,1.903,26.011,4.683 l-5.218,20.588c-4.128-2.071-11.396-5.053-21.234-4.832c-9.703,0.213-14.352,5.155-14.352,10.809c0,6.94,5.52,9.971,18.357,15.312 c17.994,7.276,26.635,17.69,26.635,33.565C110.645,351.595,97.264,366.949,69.715,365.533z M185.577,369.737 c-1.927-3.459-4.682-13.28-8.139-28.021c-3.073-14.836-8.032-18.952-18.465-19.287l-7.648-0.121v45.707l-24.507-1.228V254.184 c7.848-1.648,19.727-3.105,33.149-3.611c16.953-0.64,29.071,1.564,37.515,8.047c7.118,5.515,11.058,13.87,11.058,25.024 c0,15.468-10.868,26.019-21.071,29.673v0.524c8.24,3.475,12.856,11.569,15.883,22.739c3.748,13.755,7.533,29.744,9.881,34.547 L185.577,369.737z M320.608,270.381l-37.646,0.77v103.479l-29.903-1.501V271.765l-33.843,0.687V249.25l101.382-3.741v24.872 H320.608z M553.24,497.823c0,8.887-7.232,16.127-16.125,16.127h-177.39c-0.792,0-1.563-0.117-2.329-0.231V352.414 c8.062-6.768,15.348-13.686,21.904-20.656c8.962,9.97,19.418,19.874,31.439,29.434l5.144-16.841 c-9.674-8.178-18.193-16.603-25.605-25.05c42.72-52.068,48.484-102.904,48.788-106.012l-16.043-1.606 c-0.073,0.692-5.27,46.583-43.349,94.621c-9.46-12.497-16.683-24.741-22.273-36.014v-64.515h101.57v-16.126h-67.864v-16.126 h-15.455v16.126h-18.251V70.717c0.771-0.113,1.532-0.242,2.335-0.242h177.39c8.887,0,16.125,7.236,16.125,16.127v411.221H553.24z"/> <path d="M162.834,270.124c-6.199,0.134-9.693,0.74-11.503,1.124v32.084l9.981,0.021c12.874,0.021,20.604-6.667,20.604-17.082 C181.921,275.327,174.708,270.027,162.834,270.124z"/> <path d="M446.395,262.954l-45.051,147.413h34.552l10.499-37.837h42.216l11.37,37.837h35.874l-45.712-147.413H446.395z M451.213,347.596l8.746-31.277c2.404-8.536,4.588-19.685,6.777-28.428h0.439c2.189,8.744,4.814,19.682,7.439,28.428l9.187,31.277 H451.213z"/> </g> </g>
</svg>